Coordinates
version=1
nRows=21
nColumns=38
inDegrees=no

Units are S.I. units (second, meters, Newtons, ...)
If the header above contains a line with 'inDegrees', this indicates whether rotational values are in degrees (yes) or radians (no).

endheader
time	pelvis_tilt	pelvis_list	pelvis_rotation	pelvis_tx	pelvis_ty	pelvis_tz	hip_flexion_r	hip_adduction_r	hip_rotation_r	knee_angle_r	ankle_angle_r	subtalar_angle_r	mtp_angle_r	hip_flexion_l	hip_adduction_l	hip_rotation_l	knee_angle_l	ankle_angle_l	subtalar_angle_l	mtp_angle_l	lumbar_extension	lumbar_bending	lumbar_rotation	arm_flex_r	arm_add_r	arm_rot_r	elbow_flex_r	pro_sup_r	wrist_flex_r	wrist_dev_r	arm_flex_l	arm_add_l	arm_rot_l	elbow_flex_l	pro_sup_l	wrist_flex_l	wrist_dev_l
2.51	-0.902142	1.49263	-0.454507	0.752192	0.765142	0.960043	0.192524	-0.0218081	-0.312504	0.369915	0.195299	0	0	-0.278518	-0.21067	-0.243769	0.319653	-0.158952	0	0	-0.569273	0.14496	-0.0909122	0.896442	-0.7212	1.41434	1.18106	0.47244	0	0	0.457228	-0.366583	0.353806	1.30788	1.5708	0	0
2.52	-0.924561	1.49367	-0.429873	0.750961	0.760207	0.958666	0.195093	-0.0205371	-0.309989	0.360098	0.195232	0	0	-0.277196	-0.214457	-0.243636	0.325657	-0.161181	0	0	-0.567749	0.147318	-0.0935801	0.877455	-0.730467	1.39385	1.20752	0.488565	0	0	0.436557	-0.378852	0.348707	1.33247	1.5708	0	0
2.53	-0.96127	1.49552	-0.391789	0.74968	0.755282	0.956961	0.199489	-0.019828	-0.307193	0.351377	0.194302	0	0	-0.274854	-0.217629	-0.243403	0.331748	-0.162135	0	0	-0.565096	0.148801	-0.0962985	0.846668	-0.740772	1.35188	1.23619	0.520767	0	0	0.413713	-0.392169	0.341822	1.36139	1.5688	0	0
2.54	-1.00118	1.49769	-0.350812	0.748374	0.750214	0.955019	0.203988	-0.0196595	-0.305146	0.343834	0.194273	0	0	-0.273094	-0.220393	-0.242855	0.337226	-0.161535	0	0	-0.56162	0.14994	-0.09899	0.82676	-0.749661	1.33313	1.26167	0.539336	0	0	0.39072	-0.405285	0.336326	1.38366	1.5708	0	0
2.55	-1.04662	1.50019	-0.30483	0.746981	0.745047	0.952801	0.208111	-0.0196949	-0.303239	0.335328	0.192785	0	0	-0.271439	-0.222862	-0.242411	0.342784	-0.159606	0	0	-0.557884	0.150457	-0.101301	0.806401	-0.758914	1.31485	1.2892	0.555575	0	0	0.367261	-0.418036	0.330023	1.40745	1.5708	0	0
2.56	-1.10306	1.5034	-0.248775	0.745496	0.739836	0.950291	0.212234	-0.0202234	-0.301126	0.325566	0.190009	0	0	-0.26974	-0.224343	-0.242153	0.347804	-0.157379	0	0	-0.553431	0.149847	-0.103113	0.785264	-0.768015	1.29636	1.31751	0.570827	0	0	0.343885	-0.430251	0.323114	1.43269	1.5708	0	0
2.57	-1.16657	1.50661	-0.185754	0.744017	0.734444	0.947537	0.214985	-0.0207516	-0.299353	0.313803	0.18732	0	0	-0.268711	-0.225575	-0.241733	0.352239	-0.153868	0	0	-0.548486	0.149016	-0.10483	0.76274	-0.776689	1.27721	1.34579	0.585848	0	0	0.320621	-0.442035	0.316416	1.45804	1.5708	0	0
2.58	-1.243	1.50978	-0.110241	0.742454	0.728938	0.944514	0.21753	-0.0215202	-0.299058	0.301365	0.182345	0	0	-0.267686	-0.226628	-0.241564	0.356741	-0.14909	0	0	-0.542813	0.147897	-0.106059	0.73949	-0.784581	1.25834	1.3734	0.599426	0	0	0.297581	-0.453834	0.310149	1.48345	1.5708	0	0
2.59	-1.33205	1.51224	-0.0223461	0.740864	0.72336	0.941312	0.22062	-0.0223046	-0.301607	0.291467	0.169037	0	0	-0.266667	-0.228023	-0.241475	0.361362	-0.143532	0	0	-0.536721	0.147136	-0.106712	0.715607	-0.79201	1.2396	1.40072	0.613139	0	0	0.27441	-0.46549	0.303204	1.50875	1.5708	0	0
2.6	-1.44543	1.51486	0.0893051	0.739214	0.717725	0.937831	0.225152	-0.0241467	-0.304742	0.286556	0.143778	0	0	-0.264837	-0.228628	-0.241259	0.366257	-0.137631	0	0	-0.529386	0.145497	-0.106861	0.690293	-0.799318	1.22022	1.42836	0.626899	0	0	0.251538	-0.476917	0.295945	1.53292	1.5708	0	0
2.61	-1.57091	1.51744	0.213184	0.737524	0.71195	0.93417	0.229225	-0.0270959	-0.309031	0.285658	0.101342	0	0	-0.262978	-0.228718	-0.240445	0.371427	-0.131646	0	0	-0.521527	0.143121	-0.106981	0.663075	-0.806951	1.19952	1.4569	0.640972	0	0	0.228755	-0.488802	0.289015	1.55551	1.5708	0	0
2.62	-1.70179	1.519	0.341769	0.735568	0.706246	0.930522	0.234409	-0.0291962	-0.314214	0.287034	0.0519057	0	0	-0.260698	-0.229389	-0.239904	0.377943	-0.125692	0	0	-0.514294	0.140385	-0.105426	0.633867	-0.814812	1.17652	1.48635	0.655163	0	0	0.206757	-0.501732	0.283789	1.57694	1.5708	0	0
2.63	-1.82595	1.51678	0.461103	0.733086	0.70096	0.927137	0.246323	-0.0275212	-0.316332	0.300877	0.0448057	0	0	-0.255956	-0.23353	-0.242895	0.388074	-0.12141	0	0	-0.508436	0.139153	-0.0978987	0.599129	-0.823774	1.14451	1.51716	0.684661	0	0	0.187976	-0.514668	0.282396	1.59724	1.56784	0	0
2.64	-1.90423	1.51334	0.532639	0.730456	0.696194	0.924431	0.264875	-0.0268324	-0.315869	0.337104	0.0710611	0	0	-0.251259	-0.238285	-0.245347	0.399843	-0.120358	0	0	-0.50602	0.139145	-0.0875934	0.568056	-0.83184	1.11715	1.54591	0.703799	0	0	0.171908	-0.525937	0.28144	1.6141	1.56541	0	0
2.65	-1.91079	1.51011	0.53201	0.728042	0.691754	0.922708	0.28362	-0.0262139	-0.315109	0.379376	0.0944954	0	0	-0.248586	-0.243792	-0.245909	0.412917	-0.122785	0	0	-0.509243	0.141321	-0.0756663	0.538103	-0.839495	1.09	1.5735	0.719999	0	0	0.157089	-0.534775	0.279316	1.62863	1.56622	0	0
2.66	-1.89559	1.5072	0.509385	0.725805	0.687521	0.921672	0.300773	-0.0239833	-0.307065	0.418558	0.109086	0	0	-0.244929	-0.249257	-0.244579	0.428599	-0.129665	0	0	-0.51558	0.144219	-0.0632452	0.507841	-0.846392	1.0617	1.60013	0.737257	0	0	0.141908	-0.54164	0.275123	1.64152	1.56951	0	0
2.67	-1.9003	1.50454	0.506926	0.723603	0.683308	0.920861	0.31464	-0.020365	-0.294034	0.448417	0.118839	0	0	-0.237468	-0.253995	-0.241145	0.447946	-0.139685	0	0	-0.521677	0.14616	-0.0518516	0.475077	-0.85122	1.03039	1.625	0.752516	0	0	0.125312	-0.547073	0.268661	1.65471	1.5708	0	0
2.68	-1.91933	1.50129	0.519628	0.721266	0.678915	0.920124	0.322433	-0.0142069	-0.282365	0.464371	0.12636	0	0	-0.226479	-0.259509	-0.236252	0.47023	-0.151789	0	0	-0.526416	0.14772	-0.0424704	0.442117	-0.852597	1.00058	1.64578	0.766418	0	0	0.106722	-0.551829	0.260187	1.66765	1.5708	0	0
2.69	-1.97286	1.49637	0.566658	0.718567	0.674467	0.919195	0.328643	-0.00706456	-0.276662	0.472075	0.133253	0	0	-0.209627	-0.26599	-0.230642	0.496518	-0.166192	0	0	-0.528489	0.148246	-0.0334119	0.405426	-0.85056	0.966868	1.66427	0.78568	0	0	0.0864418	-0.556877	0.251133	1.68256	1.5708	0	0
2.7	-2.0418	1.4909	0.629238	0.715692	0.670011	0.918219	0.333421	-0.000205693	-0.275226	0.474172	0.139405	0	0	-0.189114	-0.272344	-0.223782	0.525378	-0.18231	0	0	-0.529054	0.147547	-0.0253904	0.368388	-0.845082	0.932448	1.67957	0.811579	0	0	0.0654786	-0.562187	0.241567	1.69548	1.5708	0	0
2.71	-2.11405	1.48597	0.695348	0.712755	0.665628	0.917311	0.337009	0.00535578	-0.274871	0.473175	0.145213	0	0	-0.16674	-0.277621	-0.216374	0.555585	-0.201351	0	0	-0.529305	0.145241	-0.0187991	0.334062	-0.837851	0.901355	1.69266	0.836282	0	0	0.0442198	-0.567792	0.230958	1.70747	1.5708	0	0
